<svg width="44" height="51" viewBox="0 0 44 51" fill="none" xmlns="http://www.w3.org/2000/svg">
<path d="M31.2479 22.409L39.3501 30.5113V14.3068L31.2479 22.409ZM31.2479 1.78509L43.033 13.5702V31.2479L25.3553 48.9255C24.5739 49.7069 23.5141 50.1459 22.409 50.1459C21.304 50.1459 20.2442 49.7069 19.4628 48.9255L1.7851 31.2479C1.0037 30.4665 0.564714 29.4067 0.564714 28.3016C0.564714 27.1965 1.0037 26.1367 1.7851 25.3553L25.3553 1.78509C26.9905 0.149908 29.6127 0.149908 31.2479 1.78509ZM16.5165 40.0867L17.9896 38.6136C19.9489 36.6543 17.0026 31.734 15.0434 29.7747C13.0841 27.8155 8.16379 24.8692 6.20452 26.8285L4.73138 28.3016L16.5165 40.0867ZM22.409 22.409C21.6276 21.6276 20.5678 21.1887 19.4628 21.1887C18.3577 21.1887 17.2979 21.6276 16.5165 22.409C15.7351 23.1904 15.2961 24.2502 15.2961 25.3553C15.2961 26.4604 15.7351 27.5202 16.5165 28.3016C17.2979 29.083 18.3577 29.522 19.4628 29.522C20.5678 29.522 21.6276 29.083 22.409 28.3016C23.1905 27.5202 23.6294 26.4604 23.6294 25.3553C23.6294 24.2502 23.1905 23.1904 22.409 22.409Z" fill="#161616"/>
</svg>
